<?xml version="1.0" standalone="no"?>
<!DOCTYPE svg PUBLIC "-//W3C//DTD SVG 20010904//EN"
 "http://www.w3.org/TR/2001/REC-SVG-20010904/DTD/svg10.dtd">
<svg version="1.0" xmlns="http://www.w3.org/2000/svg"
 width="751.000000pt" height="243.000000pt" viewBox="0 0 751.000000 243.000000"
 preserveAspectRatio="xMidYMid meet">
<metadata>
Created by potrace 1.16, written by Peter Selinger 2001-2019
</metadata>
<g transform="translate(0.000000,243.000000) scale(0.100000,-0.100000)"
fill="#FFF" stroke="none">
<path d="M1398 2022 l-238 -137 -2 -264 -3 -264 -222 -126 -223 -126 3 -285 2
-284 242 -139 242 -138 222 127 c122 70 227 127 233 127 6 0 109 -57 230 -127
l219 -127 243 138 243 138 1 285 0 285 -223 126 -222 127 -3 264 -2 264 -239
137 c-131 75 -244 137 -252 136 -8 0 -121 -62 -251 -137z m502 -85 l165 -95 0
-237 0 -238 -200 -115 c-110 -63 -205 -115 -212 -115 -6 0 -102 51 -212 114
l-201 114 0 240 0 240 206 117 207 117 41 -24 c22 -13 115 -66 206 -118z m620
-1116 l0 -236 -191 -110 c-105 -60 -200 -114 -210 -119 -14 -7 -64 17 -224
108 l-205 117 2 242 3 241 203 116 204 117 209 -120 209 -120 0 -236z m-1110
356 l195 -112 0 -244 0 -244 -199 -114 c-110 -62 -205 -112 -211 -111 -6 2
-102 55 -213 118 l-201 115 -1 235 0 235 203 118 c111 64 209 117 217 117 8 0
103 -51 210 -113z"/>
<path d="M4429 1453 c-3 -354 1 -444 22 -489 12 -26 33 -48 59 -63 50 -28 148
-44 217 -35 l53 6 0 68 0 68 -86 3 c-112 5 -114 8 -114 151 l0 108 85 0 85 0
0 70 0 70 -85 0 -85 0 0 73 0 73 -63 37 c-35 20 -69 37 -75 37 -9 0 -12 -50
-13 -177z"/>
<path d="M2910 1235 l0 -355 85 0 85 0 0 135 0 135 195 0 195 0 0 80 0 80
-192 2 -193 3 -3 58 -3 57 251 0 250 0 0 80 0 80 -335 0 -335 0 0 -355z"/>
<path d="M3869 1416 c-90 -19 -130 -52 -150 -120 -15 -53 -4 -100 32 -141 39
-44 101 -63 234 -71 55 -4 108 -11 118 -16 26 -13 21 -47 -9 -58 -35 -14 -201
-12 -301 4 l-83 12 0 -67 c0 -53 3 -68 16 -73 10 -4 74 -11 145 -18 199 -17
328 11 381 82 53 72 24 191 -56 230 -52 25 -137 40 -224 40 -68 0 -102 12
-102 35 0 8 9 19 19 25 27 14 212 12 294 -4 l67 -13 0 68 c0 77 5 73 -105 89
-92 13 -206 11 -276 -4z"/>
<path d="M5113 1420 c-93 -20 -163 -76 -183 -148 -13 -50 -13 -211 2 -253 21
-62 61 -102 129 -129 55 -21 80 -25 169 -24 122 0 171 12 229 55 72 52 103
166 82 299 -14 87 -49 137 -123 174 -50 24 -71 29 -160 32 -57 2 -122 -1 -145
-6z m216 -151 c42 -15 61 -55 61 -127 0 -102 -50 -137 -186 -130 -64 3 -77 7
-101 30 -22 22 -27 39 -31 88 -8 113 29 149 154 150 39 0 85 -5 103 -11z"/>
<path d="M5945 1424 c-11 -3 -53 -14 -93 -26 -69 -21 -74 -21 -101 -5 -62 36
-60 43 -61 -248 l0 -265 80 0 80 0 0 189 c0 170 2 190 18 196 9 4 68 10 130
13 l112 5 0 67 0 68 -31 6 c-33 6 -101 6 -134 0z"/>
<path d="M6450 1424 c-110 -22 -191 -84 -207 -161 -12 -57 -9 -192 5 -241 27
-89 108 -144 232 -157 62 -6 281 8 314 21 12 5 16 22 16 76 l0 69 -57 -8 c-95
-13 -286 -10 -315 6 -26 13 -48 49 -48 77 0 12 9 13 53 7 73 -11 244 -7 295 6
23 7 57 25 75 41 30 27 32 32 32 97 0 86 -19 115 -95 144 -41 15 -84 22 -165
24 -60 2 -121 1 -135 -1z m214 -134 c32 -12 36 -54 7 -70 -22 -11 -190 -14
-240 -4 -44 9 -39 43 9 66 39 20 180 25 224 8z"/>
</g>
</svg>
